<?xml version="1.0" standalone="no"?>
<!DOCTYPE svg PUBLIC "-//W3C//DTD SVG 20010904//EN"
 "http://www.w3.org/TR/2001/REC-SVG-20010904/DTD/svg10.dtd">
<svg version="1.0" xmlns="http://www.w3.org/2000/svg"
 width="640.000000pt" height="640.000000pt" viewBox="0 0 640.000000 640.000000"
 preserveAspectRatio="xMidYMid meet">
<metadata>
Created by potrace 1.14, written by Peter Selinger 2001-2017
</metadata>
<g transform="translate(0.000000,640.000000) scale(0.100000,-0.100000)"
fill="#000000" stroke="none">
<path d="M2810 5095 l0 -235 1795 0 1795 0 0 235 0 235 -1795 0 -1795 0 0
-235z"/>
<path d="M317 5226 l-26 -33 28 -33 27 -33 26 33 26 34 -25 33 c-14 18 -27 33
-28 33 -1 0 -14 -15 -28 -34z"/>
<path d="M1032 5231 c-27 -38 -27 -39 2 -76 24 -30 25 -30 40 -10 36 44 36 51
8 84 l-27 33 -23 -31z"/>
<path d="M1742 5226 l-24 -35 23 -30 c13 -17 26 -31 29 -31 3 0 16 14 29 31
l23 30 -24 35 c-13 18 -25 34 -28 34 -3 0 -15 -16 -28 -34z"/>
<path d="M2453 5226 l-22 -34 21 -29 c12 -15 24 -30 26 -33 4 -6 52 51 52 63
0 10 -42 67 -49 67 -3 0 -16 -16 -28 -34z"/>
<path d="M227 5136 l-28 -23 34 -26 35 -26 28 21 c16 12 31 24 34 26 7 6 -49
52 -63 52 -7 -1 -25 -11 -40 -24z"/>
<path d="M384 5137 l-27 -23 32 -27 32 -27 36 27 35 27 -28 23 c-36 29 -46 29
-80 0z"/>
<path d="M937 5136 l-28 -23 34 -26 34 -26 36 26 36 25 -29 24 c-34 30 -47 30
-83 0z"/>
<path d="M1096 5137 l-29 -23 34 -26 33 -27 28 20 c40 29 41 35 9 58 -36 26
-40 26 -75 -2z"/>
<path d="M1653 5136 c-15 -13 -26 -26 -23 -28 3 -2 18 -14 34 -26 l28 -21 35
26 34 26 -28 23 c-36 30 -46 29 -80 0z"/>
<path d="M1807 5136 l-28 -23 34 -26 35 -26 28 21 c16 12 31 24 34 26 7 6 -49
52 -63 52 -7 -1 -25 -11 -40 -24z"/>
<path d="M2366 5137 l-29 -23 34 -26 33 -27 28 20 c40 29 41 35 9 58 -36 26
-40 26 -75 -2z"/>
<path d="M2522 5137 l-32 -24 37 -26 36 -26 34 26 34 26 -28 23 c-35 29 -42
29 -81 1z"/>
<path d="M252 4890 c-50 -115 -89 -210 -88 -210 2 0 29 9 61 20 32 11 60 20
61 20 2 0 15 -23 30 -52 l26 -51 30 51 c16 29 31 52 32 52 2 0 28 -9 59 -19
32 -11 57 -18 57 -15 0 6 -170 407 -175 412 -1 1 -43 -92 -93 -208z"/>
<path d="M967 4897 c-48 -111 -87 -205 -87 -209 0 -4 26 2 58 13 45 16 59 17
65 7 4 -7 19 -31 31 -52 l24 -40 26 52 c15 29 30 52 34 52 4 0 31 -9 61 -20
29 -12 55 -20 56 -18 2 3 -172 408 -178 414 -1 2 -42 -88 -90 -199z"/>
<path d="M2474 5085 c-5 -11 -45 -105 -90 -210 -45 -104 -81 -191 -79 -193 1
-1 28 7 60 18 65 22 60 24 97 -45 l21 -39 24 49 c14 28 27 52 29 54 2 2 29 -6
61 -17 31 -12 59 -20 60 -18 2 2 -37 97 -86 212 -69 161 -91 204 -97 189z"/>
<path d="M1677 4889 c-48 -111 -86 -204 -84 -206 3 -2 28 5 56 17 28 11 55 20
60 20 4 0 18 -22 31 -50 13 -27 26 -50 30 -50 4 0 17 23 30 50 13 28 27 50 31
50 5 0 32 -9 60 -20 28 -12 53 -19 55 -18 4 5 -170 408 -177 408 -3 0 -44 -91
-92 -201z"/>
<path d="M672 4668 c-21 -33 -20 -41 13 -82 15 -20 15 -20 30 0 35 45 37 53
13 84 -12 16 -25 30 -29 30 -4 0 -16 -14 -27 -32z"/>
<path d="M1387 4672 c-23 -33 -23 -40 4 -76 l21 -28 24 28 c29 36 29 39 3 75
-25 36 -29 36 -52 1z"/>
<path d="M2102 4673 c-27 -38 -27 -41 2 -76 l23 -28 26 34 26 34 -28 33 -27
33 -22 -30z"/>
<path d="M590 4581 l-33 -27 28 -22 c35 -28 43 -27 79 1 l28 23 -34 26 -35 27
-33 -28z"/>
<path d="M743 4581 l-33 -27 30 -22 c35 -27 48 -27 78 -3 27 23 27 30 5 48
-41 31 -47 31 -80 4z"/>
<path d="M1300 4582 l-32 -28 34 -26 34 -26 32 25 c35 27 35 33 -7 62 l-28 20
-33 -27z"/>
<path d="M1457 4583 l-37 -26 32 -24 c39 -28 46 -28 81 1 l28 23 -34 26 -34
26 -36 -26z"/>
<path d="M2012 4581 l-33 -26 31 -23 c34 -25 57 -23 85 8 18 20 18 21 -1 35
-42 34 -48 34 -82 6z"/>
<path d="M2170 4582 l-33 -26 33 -27 33 -28 33 26 c37 28 37 33 -4 62 l-28 20
-34 -27z"/>
<path d="M1401 4519 c-5 -13 -39 -94 -76 -179 -37 -85 -73 -169 -81 -187 l-14
-32 57 20 c31 10 60 19 64 19 5 0 21 -24 35 -52 l27 -53 25 53 c15 28 32 52
39 52 7 0 35 -9 63 -20 27 -11 50 -17 50 -13 0 7 -170 405 -176 412 -2 2 -8
-7 -13 -20z"/>
<path d="M2037 4340 c-48 -111 -87 -205 -87 -210 0 -5 23 -1 50 10 28 11 55
20 60 20 4 0 21 -23 37 -50 l29 -51 28 51 c15 27 31 50 35 50 4 0 29 -7 55
-16 26 -9 49 -14 52 -12 4 4 -142 354 -164 394 -6 10 -36 -49 -95 -186z"/>
<path d="M611 4340 c-45 -105 -84 -197 -87 -205 -5 -12 5 -11 52 5 31 11 60
20 63 20 4 0 17 -20 31 -45 14 -25 28 -45 32 -45 5 0 18 20 30 45 12 25 25 45
28 45 4 0 33 -9 64 -20 53 -18 57 -18 51 -2 -30 79 -170 392 -175 392 -3 0
-43 -86 -89 -190z"/>
<path d="M2820 4145 l0 -235 1790 0 1790 0 0 235 0 235 -1790 0 -1790 0 0
-235z"/>
<path d="M317 4114 l-26 -37 27 -35 26 -34 23 28 c13 16 23 33 23 38 0 8 -39
76 -44 76 -2 0 -14 -16 -29 -36z"/>
<path d="M1033 4117 c-28 -41 -28 -45 1 -80 l23 -28 26 34 26 34 -25 37 c-14
20 -26 36 -27 36 -1 0 -12 -15 -24 -33z"/>
<path d="M1740 4110 l-21 -30 24 -36 25 -35 27 35 26 35 -22 30 c-13 17 -26
31 -30 31 -4 0 -17 -13 -29 -30z"/>
<path d="M2452 4108 c-20 -32 -20 -32 -1 -60 29 -40 32 -40 58 -3 l23 34 -22
31 c-12 16 -25 30 -30 30 -4 0 -17 -14 -28 -32z"/>
<path d="M232 4023 l-34 -26 29 -23 c35 -29 41 -29 78 0 l29 23 -29 26 c-17
15 -32 26 -35 27 -3 0 -20 -12 -38 -27z"/>
<path d="M394 4028 c-16 -12 -31 -24 -34 -26 -6 -4 51 -52 63 -52 14 0 66 43
61 51 -2 4 -17 17 -33 28 l-29 21 -28 -22z"/>
<path d="M942 4022 l-32 -27 34 -23 c36 -25 57 -22 86 13 12 14 10 20 -16 40
-16 14 -31 24 -34 24 -3 0 -20 -12 -38 -27z"/>
<path d="M1100 4023 l-32 -26 29 -23 c35 -29 41 -29 78 1 29 24 29 25 10 40
-46 35 -52 36 -85 8z"/>
<path d="M1655 4023 l-29 -26 29 -23 c37 -29 34 -29 74 0 l32 24 -34 26 c-19
14 -36 26 -38 26 -2 0 -17 -12 -34 -27z"/>
<path d="M1812 4023 l-33 -28 35 -23 35 -24 31 22 c16 12 30 25 30 29 0 6 -54
51 -62 51 -2 0 -18 -12 -36 -27z"/>
<path d="M2374 4028 c-16 -12 -31 -23 -34 -25 -6 -5 53 -52 65 -52 6 0 23 11
40 24 29 24 29 25 10 40 -44 34 -52 35 -81 13z"/>
<path d="M2525 4024 l-30 -25 30 -24 c17 -14 33 -25 36 -25 3 0 20 11 38 24
l32 24 -34 26 c-19 14 -36 26 -38 26 -2 -1 -17 -12 -34 -26z"/>
<path d="M326 3945 c-9 -20 -48 -111 -87 -201 -39 -91 -69 -168 -65 -171 3 -3
30 3 59 14 l53 21 29 -55 29 -55 27 55 28 55 56 -21 c30 -11 58 -18 60 -15 4
4 -160 396 -170 407 -2 2 -11 -13 -19 -34z"/>
<path d="M966 3779 c-48 -111 -84 -204 -82 -207 3 -3 31 4 61 15 l56 21 28
-55 27 -55 29 55 29 55 54 -20 c29 -11 56 -17 59 -14 5 5 -152 381 -167 399
-4 4 -46 -83 -94 -194z"/>
<path d="M1678 3777 c-48 -111 -85 -203 -83 -205 2 -3 25 3 51 12 26 9 52 16
58 16 6 0 22 -20 35 -45 13 -25 27 -45 30 -45 4 0 17 20 29 45 12 25 29 45 37
45 8 0 37 -9 65 -19 27 -11 50 -17 50 -15 0 8 -172 400 -178 406 -4 3 -46 -84
-94 -195z"/>
<path d="M2466 3947 c-9 -20 -50 -114 -91 -209 -41 -94 -75 -173 -75 -175 0
-1 24 6 53 17 28 11 58 20 64 20 7 0 25 -23 39 -52 l26 -52 25 49 c14 28 27
52 29 54 2 3 29 -3 60 -13 31 -10 57 -16 59 -14 3 3 -119 295 -164 393 -8 18
-11 16 -25 -18z"/>
<path d="M0 3195 l0 -235 3200 0 3200 0 0 235 0 235 -3200 0 -3200 0 0 -235z"/>
<path d="M0 2255 l0 -235 3200 0 3200 0 0 235 0 235 -3200 0 -3200 0 0 -235z"/>
<path d="M0 1305 l0 -235 3200 0 3200 0 0 235 0 235 -3200 0 -3200 0 0 -235z"/>
</g>
</svg>
